<?xml version="1.0" encoding="UTF-8"?>
<svg width="902px" height="1390px" viewBox="0 0 902 1390" version="1.1" xmlns="http://www.w3.org/2000/svg" xmlns:xlink="http://www.w3.org/1999/xlink">
    <title>Group 2</title>
    <g id="Page-1" stroke="none" stroke-width="1" fill="none" fill-rule="evenodd">
        <g id="Group-2">
            <path d="M451,0.5 C575.40214,0.5 688.02714,50.9239301 769.551605,132.448395 C851.07607,213.97286 901.5,326.59786 901.5,451 C901.5,542.141048 874.435071,626.960776 827.9036,697.860289 L827.9036,697.860289 L457.601723,1384.70095 C456.618903,1386.52397 454.990202,1387.77603 453.151454,1388.32664 C451.312705,1388.87724 449.263907,1388.72639 447.440892,1387.74357 C446.151276,1387.04831 445.093532,1385.99057 444.398273,1384.70095 L444.398273,1384.70095 L74.0905049,697.851306 C27.5626428,626.953612 0.5,542.137199 0.5,451 C0.5,326.59786 50.9239301,213.97286 132.448395,132.448395 C213.97286,50.9239301 326.59786,0.5 451,0.5 Z" id="Combined-Shape" stroke="#979797" fill="#5F95F4"></path>
            <circle id="Oval" stroke="#979797" fill="#FFFFFF" cx="451" cy="451" r="353.5"></circle>
            <g id="Group" transform="translate(236.000000, 233.000000)">
                <path d="M60,0 C111.333333,0 162.666667,0 214,0 C265.333333,0 316.666667,0 368,0 C381.807119,1.01638711e-15 393,11.1928813 393,25 L393,375 C393,379.418278 389.418278,383 385,383 L43,383 C38.581722,383 35,379.418278 35,375 L35,25 C35,11.1928813 46.1928813,-1.01638711e-15 60,0 Z" id="Rectangle" fill="#5F95F4"></path>
                <path d="M99.3106996,37.5 C137.459534,37.5 175.608368,37.5 213.757202,37.5 C252.401235,37.5 291.045267,37.5 329.6893,37.5 C340.734995,37.5 349.6893,46.454305 349.6893,57.5 L349.6893,277.248109 C349.6893,281.229295 346.761887,284.604651 342.820718,285.167699 L214.5,303.5 L214.5,303.5 L86.1792822,285.167699 C82.2381133,284.604651 79.3106996,281.229295 79.3106996,277.248109 L79.3106996,57.5 C79.3106996,46.454305 88.2650046,37.5 99.3106996,37.5 Z" id="Rectangle-Copy" fill="#FFFFFF"></path>
                <path d="M291,383 L350,383 L350,436 C350,440.418278 346.418278,444 342,444 L299,444 C294.581722,444 291,440.418278 291,436 L291,383 L291,383 Z" id="Rectangle-Copy-3" fill="#5F95F4"></path>
                <path d="M400,129 L421,129 C425.418278,129 429,132.581722 429,137 L429,172 C429,176.418278 425.418278,180 421,180 L400,180 L400,180 L400,129 Z" id="Rectangle-Copy-6" fill="#5F95F4"></path>
                <path d="M0,129 L21,129 C25.418278,129 29,132.581722 29,137 L29,172 C29,176.418278 25.418278,180 21,180 L0,180 L0,180 L0,129 Z" id="Rectangle-Copy-7" fill="#5F95F4" transform="translate(14.500000, 154.500000) scale(-1, 1) translate(-14.500000, -154.500000) "></path>
                <path d="M79,383 L138,383 L138,436 C138,440.418278 134.418278,444 130,444 L87,444 C82.581722,444 79,440.418278 79,436 L79,383 L79,383 Z" id="Rectangle-Copy-4" fill="#5F95F4"></path>
                <path d="M84.6431912,315.732012 L158.947367,325.37045 C160.87846,325.620944 162.488453,326.969788 163.073319,328.827152 L168.952661,347.498244 C169.782058,350.132169 168.319199,352.939746 165.685274,353.769143 C165.199372,353.922149 164.692941,354 164.183518,354 L84,354 C81.2385763,354 79,351.761424 79,349 L79,320.69047 C79,317.929046 81.2385763,315.69047 84,315.69047 C84.2150674,315.69047 84.4299107,315.704346 84.6431912,315.732012 Z" id="Rectangle" fill="#FFFFFF"></path>
                <path d="M263.643191,315.732012 L337.947367,325.37045 C339.87846,325.620944 341.488453,326.969788 342.073319,328.827152 L347.952661,347.498244 C348.782058,350.132169 347.319199,352.939746 344.685274,353.769143 C344.199372,353.922149 343.692941,354 343.183518,354 L263,354 C260.238576,354 258,351.761424 258,349 L258,320.69047 C258,317.929046 260.238576,315.69047 263,315.69047 C263.215067,315.69047 263.429911,315.704346 263.643191,315.732012 Z" id="Rectangle-Copy-5" fill="#FFFFFF" transform="translate(304.000000, 334.500000) scale(-1, 1) translate(-304.000000, -334.500000) "></path>
            </g>
        </g>
    </g>
</svg>